# xmcd
#
# Track frame offsets: 
#        182
#        14330
#        26737
#        38705
#        50545
#        64732
#        76527
#        89272
#        102080
#        116257
#        129920
#        144475
#        156535
#        168267
#        181457
#        193962
#        208277
#        221177
#        233097
#        245775
#        259037
#        270807
#
# Disc length: 3801 seconds
#
# Revision: 1
# Processed by: cddbd v1.5.2PL0 Copyright (c) Steve Scherf et al.
# Submitted via: ExactAudioCopy v1.0b1
#
DISCID=330ed716
DTITLE=Ruth Brown - 1949-1950
DYEAR=1949
DGENRE=R&B
TTITLE0=Rain Is A Bringdown
TTITLE1=It's Raining
TTITLE2=So Long
TTITLE3=Hey Pretty Baby
TTITLE4=Love Me Baby
TTITLE5=I'll Get Along Somehow
TTITLE6=Happiness Is A Thing Called Joe
TTITLE7=Rocking Blues
TTITLE8=Someday
TTITLE9=Why
TTITLE10=It's All In Your Mind
TTITLE11=I Can Dream, Can't I
TTITLE12=Sentimental Journey
TTITLE13=Where Can I Go
TTITLE14=Dear Little Boy Of Mine
TTITLE15=Am I Making The Same Mistake Again
TTITLE16=Teardrops From My Eyes
TTITLE17=R.B. Blues
TTITLE18=I Know
TTITLE19=I Don't Want Nobody
TTITLE20=I'll Wait For You
TTITLE21=Standing On The Corner
EXTD=
EXTT0=
EXTT1=
EXTT2=
EXTT3=
EXTT4=
EXTT5=
EXTT6=
EXTT7=
EXTT8=
EXTT9=
EXTT10=
EXTT11=
EXTT12=
EXTT13=
EXTT14=
EXTT15=
EXTT16=
EXTT17=
EXTT18=
EXTT19=
EXTT20=
EXTT21=
PLAYORDER=
